<svg width="478" height="60" viewBox="0 0 478 60" fill="none" xmlns="http://www.w3.org/2000/svg">
<path d="M0.76 59V7H14.52V59H0.76ZM24.9525 59V19H36.1525L37.1125 23.8H37.4325C39.0325 22.2533 40.8458 20.92 42.8725 19.8C44.9525 18.6267 47.3525 18.04 50.0725 18.04C54.4992 18.04 57.6725 19.5333 59.5925 22.52C61.5658 25.4533 62.5525 29.4 62.5525 34.36V59H48.7925V36.12C48.7925 33.56 48.4725 31.8533 47.8325 31C47.1925 30.1467 46.1792 29.72 44.7925 29.72C43.5125 29.72 42.4458 29.9867 41.5925 30.52C40.7392 31.0533 39.7792 31.8 38.7125 32.76V59H24.9525ZM80.955 59L67.835 19H81.595L85.915 36.44C86.875 40.44 87.835 44.6 88.795 48.92H89.115C90.075 44.6 91.035 40.44 91.995 36.44L96.315 19H109.435L96.795 59H80.955ZM123.868 59.96C121.361 59.96 119.201 59.4 117.388 58.28C115.628 57.1067 114.268 55.5867 113.308 53.72C112.348 51.8533 111.868 49.8267 111.868 47.64C111.868 43.48 113.575 40.2267 116.988 37.88C120.401 35.48 125.948 33.88 133.628 33.08C133.308 30.3067 131.441 28.92 128.028 28.92C126.588 28.92 125.068 29.2133 123.468 29.8C121.868 30.3333 120.028 31.16 117.948 32.28L113.148 23.32C115.975 21.6133 118.828 20.3067 121.708 19.4C124.641 18.4933 127.655 18.04 130.748 18.04C135.975 18.04 140.055 19.5333 142.988 22.52C145.921 25.4533 147.388 30.2 147.388 36.76V59H136.188L135.228 55.16H134.908C133.308 56.6 131.601 57.7733 129.788 58.68C128.028 59.5333 126.055 59.96 123.868 59.96ZM128.668 49.4C129.788 49.4 130.721 49.16 131.468 48.68C132.215 48.1467 132.935 47.48 133.628 46.68V41.24C130.375 41.72 128.108 42.44 126.828 43.4C125.601 44.36 124.988 45.4 124.988 46.52C124.988 48.44 126.215 49.4 128.668 49.4ZM171.276 59.96C166.103 59.96 162.343 58.4667 159.996 55.48C157.703 52.44 156.556 48.4933 156.556 43.64V29.72H151.276V19.48L157.356 19L158.956 8.6H170.316V19H179.436V29.72H170.316V43.4C170.316 45.5867 170.796 47.1067 171.756 47.96C172.716 48.8133 173.836 49.24 175.116 49.24C175.756 49.24 176.37 49.1867 176.956 49.08C177.596 48.92 178.156 48.76 178.636 48.6L180.716 58.52C179.703 58.84 178.423 59.16 176.876 59.48C175.33 59.8 173.463 59.96 171.276 59.96ZM195.665 59.96C193.158 59.96 190.998 59.4 189.185 58.28C187.425 57.1067 186.065 55.5867 185.105 53.72C184.145 51.8533 183.665 49.8267 183.665 47.64C183.665 43.48 185.372 40.2267 188.785 37.88C192.198 35.48 197.745 33.88 205.425 33.08C205.105 30.3067 203.238 28.92 199.825 28.92C198.385 28.92 196.865 29.2133 195.265 29.8C193.665 30.3333 191.825 31.16 189.745 32.28L184.945 23.32C187.772 21.6133 190.625 20.3067 193.505 19.4C196.438 18.4933 199.452 18.04 202.545 18.04C207.772 18.04 211.852 19.5333 214.785 22.52C217.718 25.4533 219.185 30.2 219.185 36.76V59H207.985L207.025 55.16H206.705C205.105 56.6 203.398 57.7733 201.585 58.68C199.825 59.5333 197.852 59.96 195.665 59.96ZM200.465 49.4C201.585 49.4 202.518 49.16 203.265 48.68C204.012 48.1467 204.732 47.48 205.425 46.68V41.24C202.172 41.72 199.905 42.44 198.625 43.4C197.398 44.36 196.785 45.4 196.785 46.52C196.785 48.44 198.012 49.4 200.465 49.4Z" fill="#FFE500"/>
<path d="M267.851 59.96C263.425 59.96 259.318 59 255.531 57.08C251.798 55.1067 248.785 52.1467 246.491 48.2C244.198 44.2533 243.051 39.32 243.051 33.4C243.051 29.0267 243.718 25.16 245.051 21.8C246.438 18.3867 248.305 15.5067 250.651 13.16C253.051 10.8133 255.745 9.05333 258.731 7.88C261.771 6.65333 264.918 6.04 268.171 6.04C271.638 6.04 274.731 6.73333 277.451 8.12C280.225 9.45333 282.518 11.0533 284.331 12.92L277.131 21.72C275.851 20.6 274.518 19.6933 273.131 19C271.798 18.2533 270.251 17.88 268.491 17.88C266.465 17.88 264.571 18.4933 262.811 19.72C261.105 20.8933 259.718 22.6 258.651 24.84C257.638 27.08 257.131 29.7733 257.131 32.92C257.131 37.7733 258.145 41.5333 260.171 44.2C262.251 46.8133 264.971 48.12 268.331 48.12C270.358 48.12 272.145 47.6667 273.691 46.76C275.291 45.8533 276.651 44.8133 277.771 43.64L284.971 52.28C282.785 54.84 280.225 56.76 277.291 58.04C274.358 59.32 271.211 59.96 267.851 59.96ZM301.446 59.96C298.94 59.96 296.78 59.4 294.966 58.28C293.206 57.1067 291.846 55.5867 290.886 53.72C289.926 51.8533 289.446 49.8267 289.446 47.64C289.446 43.48 291.153 40.2267 294.566 37.88C297.98 35.48 303.526 33.88 311.206 33.08C310.886 30.3067 309.02 28.92 305.606 28.92C304.166 28.92 302.646 29.2133 301.046 29.8C299.446 30.3333 297.606 31.16 295.526 32.28L290.726 23.32C293.553 21.6133 296.406 20.3067 299.286 19.4C302.22 18.4933 305.233 18.04 308.326 18.04C313.553 18.04 317.633 19.5333 320.566 22.52C323.5 25.4533 324.966 30.2 324.966 36.76V59H313.766L312.806 55.16H312.486C310.886 56.6 309.18 57.7733 307.366 58.68C305.606 59.5333 303.633 59.96 301.446 59.96ZM306.246 49.4C307.366 49.4 308.3 49.16 309.046 48.68C309.793 48.1467 310.513 47.48 311.206 46.68V41.24C307.953 41.72 305.686 42.44 304.406 43.4C303.18 44.36 302.566 45.4 302.566 46.52C302.566 48.44 303.793 49.4 306.246 49.4ZM346.257 59.96C343.697 59.96 340.977 59.4533 338.097 58.44C335.27 57.3733 332.817 56.0133 330.737 54.36L336.817 45.88C340.444 48.5467 343.697 49.88 346.577 49.88C348.017 49.88 349.03 49.6933 349.617 49.32C350.257 48.8933 350.577 48.28 350.577 47.48C350.577 46.4133 349.804 45.5867 348.257 45C346.71 44.36 344.924 43.64 342.897 42.84C341.35 42.2 339.804 41.4 338.257 40.44C336.764 39.4267 335.51 38.1467 334.497 36.6C333.484 35.0533 332.977 33.1867 332.977 31C332.977 27.0533 334.444 23.9067 337.377 21.56C340.31 19.2133 344.124 18.04 348.817 18.04C352.124 18.04 354.95 18.6 357.297 19.72C359.697 20.7867 361.777 21.9867 363.537 23.32L357.457 31.48C356.017 30.4133 354.604 29.5867 353.217 29C351.83 28.4133 350.524 28.12 349.297 28.12C346.95 28.12 345.777 28.8667 345.777 30.36C345.777 31.3733 346.497 32.1733 347.937 32.76C349.43 33.2933 351.164 33.9333 353.137 34.68C354.737 35.2667 356.31 36.04 357.857 37C359.457 37.96 360.764 39.2133 361.777 40.76C362.844 42.3067 363.377 44.28 363.377 46.68C363.377 50.4133 361.91 53.56 358.977 56.12C356.097 58.68 351.857 59.96 346.257 59.96ZM370.109 59V19H383.869V59H370.109ZM376.989 14.04C374.749 14.04 372.935 13.4267 371.549 12.2C370.162 10.92 369.469 9.24 369.469 7.16C369.469 5.08 370.162 3.42666 371.549 2.2C372.935 0.919998 374.749 0.279998 376.989 0.279998C379.229 0.279998 381.042 0.919998 382.429 2.2C383.815 3.42666 384.509 5.08 384.509 7.16C384.509 9.24 383.815 10.92 382.429 12.2C381.042 13.4267 379.229 14.04 376.989 14.04ZM393.156 59V19H404.356L405.316 23.8H405.636C407.236 22.2533 409.049 20.92 411.076 19.8C413.156 18.6267 415.556 18.04 418.276 18.04C422.702 18.04 425.876 19.5333 427.796 22.52C429.769 25.4533 430.756 29.4 430.756 34.36V59H416.996V36.12C416.996 33.56 416.676 31.8533 416.036 31C415.396 30.1467 414.382 29.72 412.996 29.72C411.716 29.72 410.649 29.9867 409.796 30.52C408.942 31.0533 407.982 31.8 406.916 32.76V59H393.156ZM457.478 59.96C454.065 59.96 450.838 59.1333 447.798 57.48C444.811 55.8267 442.358 53.4533 440.438 50.36C438.571 47.2133 437.638 43.4267 437.638 39C437.638 34.5733 438.571 30.8133 440.438 27.72C442.358 24.5733 444.811 22.1733 447.798 20.52C450.838 18.8667 454.065 18.04 457.478 18.04C460.891 18.04 464.091 18.8667 467.078 20.52C470.118 22.1733 472.571 24.5733 474.438 27.72C476.358 30.8133 477.318 34.5733 477.318 39C477.318 43.4267 476.358 47.2133 474.438 50.36C472.571 53.4533 470.118 55.8267 467.078 57.48C464.091 59.1333 460.891 59.96 457.478 59.96ZM457.478 48.92C459.558 48.92 461.025 48.04 461.878 46.28C462.785 44.4667 463.238 42.04 463.238 39C463.238 35.96 462.785 33.56 461.878 31.8C461.025 29.9867 459.558 29.08 457.478 29.08C455.398 29.08 453.905 29.9867 452.998 31.8C452.145 33.56 451.718 35.96 451.718 39C451.718 42.04 452.145 44.4667 452.998 46.28C453.905 48.04 455.398 48.92 457.478 48.92Z" fill="white"/>
</svg>
